<?xml version="1.0" encoding="iso-8859-1"?>
<!-- Generator: Adobe Illustrator 19.0.0, SVG Export Plug-In . SVG Version: 6.00 Build 0)  -->
<svg version="1.1" id="Capa_1" xmlns="http://www.w3.org/2000/svg" xmlns:xlink="http://www.w3.org/1999/xlink" x="0px" y="0px"
	 viewBox="0 0 512 512" style="enable-background:new 0 0 512 512;" xml:space="preserve">
<g>
	<g>
		<path d="M325.967,256l79.405-79.23c9.358-9.337,14.511-21.761,14.512-34.981c0-13.221-5.154-25.645-14.512-34.984
			c-0.001,0-0.002,0-0.002,0c-19.246-19.204-50.564-19.203-69.811,0L256,186.188l-79.559-79.385
			c-19.248-19.202-50.565-19.203-69.813,0.001c-9.359,9.339-14.512,21.764-14.512,34.984c0.001,13.22,5.154,25.644,14.513,34.981
			L186.033,256l-79.405,79.23c-9.359,9.338-14.512,21.762-14.512,34.982c0,13.22,5.153,25.645,14.513,34.983
			c9.624,9.603,22.262,14.405,34.905,14.403c12.641-0.001,25.284-4.802,34.907-14.403L256,325.812l79.559,79.385
			c19.248,19.202,50.565,19.203,69.813-0.001c9.359-9.339,14.512-21.764,14.512-34.984c-0.001-13.22-5.154-25.644-14.513-34.981
			L325.967,256z M384.507,384.287c-7.742,7.725-20.34,7.725-28.084,0l-89.99-89.793c-2.883-2.876-6.657-4.315-10.432-4.315
			s-7.549,1.438-10.432,4.315l-89.99,89.793c-7.743,7.724-20.343,7.726-28.084,0c-3.765-3.756-5.84-8.756-5.84-14.074
			c0.001-5.318,2.074-10.317,5.839-14.073l89.883-89.685c2.777-2.77,4.337-6.532,4.337-10.455s-1.561-7.685-4.337-10.455
			l-89.883-89.685c-3.764-3.756-5.838-8.755-5.838-14.073c0-5.318,2.073-10.318,5.839-14.074c7.742-7.725,20.34-7.725,28.084,0
			l89.99,89.793c5.765,5.752,15.098,5.752,20.863,0l89.99-89.793c7.741-7.724,20.342-7.726,28.085,0
			c3.764,3.757,5.839,8.756,5.839,14.074c-0.001,5.318-2.074,10.316-5.838,14.073l-89.883,89.685
			c-2.777,2.77-4.337,6.532-4.337,10.455s1.561,7.685,4.337,10.455l89.883,89.685c3.764,3.756,5.838,8.755,5.838,14.073
			C390.346,375.53,388.273,380.53,384.507,384.287z"/>
	</g>
</g>
<g>
	<g>
		<path d="M438.154,0H73.846C33.127,0,0,33.127,0,73.846v364.308C0,478.873,33.127,512,73.846,512h364.308
			C478.873,512,512,478.873,512,438.154V73.846C512,33.127,478.873,0,438.154,0z M482.462,438.154
			c0,24.431-19.876,44.308-44.308,44.308H73.846c-24.431,0-44.308-19.876-44.308-44.308V73.846
			c0-24.431,19.876-44.308,44.308-44.308h364.308c24.431,0,44.308,19.876,44.308,44.308V438.154z"/>
	</g>
</g>
<g>
</g>
<g>
</g>
<g>
</g>
<g>
</g>
<g>
</g>
<g>
</g>
<g>
</g>
<g>
</g>
<g>
</g>
<g>
</g>
<g>
</g>
<g>
</g>
<g>
</g>
<g>
</g>
<g>
</g>
</svg>
